<?xml version="1.0" encoding="UTF-8" standalone="no"?>
<svg
   height="48"
   viewBox="0 0 48 48"
   width="48"
   version="1.1"
   id="svg863"
   sodipodi:docname="3669480_account_circle_ic_icon.svg"
   inkscape:version="1.2.2 (732a01da63, 2022-12-09)"
   xmlns:inkscape="http://www.inkscape.org/namespaces/inkscape"
   xmlns:sodipodi="http://sodipodi.sourceforge.net/DTD/sodipodi-0.dtd"
   xmlns="http://www.w3.org/2000/svg"
   xmlns:svg="http://www.w3.org/2000/svg">
  <defs
     id="defs867" />
  <sodipodi:namedview
     id="namedview865"
     pagecolor="#505050"
     bordercolor="#ffffff"
     borderopacity="1"
     inkscape:showpageshadow="0"
     inkscape:pageopacity="0"
     inkscape:pagecheckerboard="1"
     inkscape:deskcolor="#505050"
     showgrid="false"
     inkscape:zoom="6.9532167"
     inkscape:cx="18.984019"
     inkscape:cy="37.608493"
     inkscape:window-width="1368"
     inkscape:window-height="890"
     inkscape:window-x="-6"
     inkscape:window-y="-6"
     inkscape:window-maximized="1"
     inkscape:current-layer="svg863" />
  <path
     d="M24 4C12.95 4 4 12.95 4 24s8.95 20 20 20 20-8.95 20-20S35.05 4 24 4zm0 6c3.31 0 6 2.69 6 6 0 3.32-2.69 6-6 6s-6-2.68-6-6c0-3.31 2.69-6 6-6zm0 28.4c-5.01 0-9.41-2.56-12-6.44.05-3.97 8.01-6.16 12-6.16s11.94 2.19 12 6.16c-2.59 3.88-6.99 6.44-12 6.44z"
     id="path859"
     style="fill:#ffffff" />
  <path
     d="M0 0h48v48H0z"
     fill="none"
     id="path861" />
</svg>
