<?xml version="1.0" encoding="UTF-8" standalone="no"?>
<svg
   version="1.1"
   id="mdi-facebook"
   width="24"
   height="24"
   viewBox="0 0 24 24"
   sodipodi:docname="facebook_icon_137647.svg"
   inkscape:version="1.2.2 (732a01da63, 2022-12-09)"
   xmlns:inkscape="http://www.inkscape.org/namespaces/inkscape"
   xmlns:sodipodi="http://sodipodi.sourceforge.net/DTD/sodipodi-0.dtd"
   xmlns="http://www.w3.org/2000/svg"
   xmlns:svg="http://www.w3.org/2000/svg">
  <defs
     id="defs7" />
  <sodipodi:namedview
     id="namedview5"
     pagecolor="#505050"
     bordercolor="#ffffff"
     borderopacity="1"
     inkscape:showpageshadow="0"
     inkscape:pageopacity="0"
     inkscape:pagecheckerboard="1"
     inkscape:deskcolor="#505050"
     showgrid="false"
     inkscape:zoom="19.666667"
     inkscape:cx="11.745763"
     inkscape:cy="11.618644"
     inkscape:window-width="1368"
     inkscape:window-height="890"
     inkscape:window-x="-6"
     inkscape:window-y="-6"
     inkscape:window-maximized="1"
     inkscape:current-layer="mdi-facebook" />
  <path
     d="m 12,2.04 c -5.5,0 -10,4.49 -10,10.02 0,5 3.66,9.15 8.44,9.9 v -7 H 7.9 v -2.9 h 2.54 V 9.85 c 0,-2.51 1.49,-3.89 3.78,-3.89 1.09,0 2.23,0.19 2.23,0.19 v 2.47 h -1.26 c -1.24,0 -1.63,0.77 -1.63,1.56 v 1.88 h 2.78 l -0.45,2.9 h -2.33 v 7 A 10,10 0 0 0 22,12.06 C 22,6.53 17.5,2.04 12,2.04 Z"
     id="path2"
     style="fill:#ffffff" />
</svg>
